# xmcd
#
# Track frame offsets: 
#        150
#        14544
#        25548
#        38969
#        53216
#        65305
#        77102
#        88289
#        98960
#        112051
#        125502
#        135179
#        150038
#        163580
#        173694
#        184988
#        194510
#        206999
#
# Disc length: 2918 seconds
#
# Revision: 1
# Processed by: cddbd v1.5.2PL0 Copyright (c) Steve Scherf et al.
# Submitted via: ExactAudioCopy v1.0b3
#
DISCID=f00b6412
DTITLE=Freddy Fender - Ready For Freddy
DYEAR=1998
DGENRE=Country
TTITLE0=Wasted Days And Wasted Nights
TTITLE1=A Man Can Cry
TTITLE2=Silver Wings
TTITLE3=Baby I Want To Love You
TTITLE4=I'm Leaving It Up To You
TTITLE5=She's About A Mover
TTITLE6=Wild Side Of Life
TTITLE7=Crazy Baby
TTITLE8=Enter My Heart
TTITLE9=Just Because
TTITLE10=Running Back
TTITLE11=Since I Met You Baby
TTITLE12=The Girl Who Waits On Tables
TTITLE13=Before The Next Teardrop Falls
TTITLE14=The Rains Came
TTITLE15=Mathilda
TTITLE16=Lovin' Cajun Style
TTITLE17=You'll Lose A Good Thing
EXTD=
EXTT0=
EXTT1=
EXTT2=
EXTT3=
EXTT4=
EXTT5=
EXTT6=
EXTT7=
EXTT8=
EXTT9=
EXTT10=
EXTT11=
EXTT12=
EXTT13=
EXTT14=
EXTT15=
EXTT16=
EXTT17=
PLAYORDER=
